<mxfile host="app.diagrams.net" modified="2023-11-13T03:09:02.356Z" agent="Mozilla/5.0 (Macintosh; Intel Mac OS X 10_15_7) AppleWebKit/537.36 (KHTML, like Gecko) Chrome/119.0.0.0 Safari/537.36" etag="H-kKE28sH18WwLsmiFoh" version="22.1.0" type="github">
  <diagram name="第 1 页" id="Zw--KjR_lLqDmIyoBcCK">
    <mxGraphModel dx="1063" dy="577" grid="1" gridSize="10" guides="1" tooltips="1" connect="1" arrows="1" fold="1" page="1" pageScale="1" pageWidth="827" pageHeight="1169" math="0" shadow="0">
      <root>
        <mxCell id="0" />
        <mxCell id="1" parent="0" />
        <mxCell id="rbmnByKA2b7uLXRPWCh0-4" style="edgeStyle=orthogonalEdgeStyle;rounded=0;orthogonalLoop=1;jettySize=auto;html=1;exitX=0.5;exitY=1;exitDx=0;exitDy=0;entryX=0.5;entryY=0;entryDx=0;entryDy=0;" parent="1" source="rbmnByKA2b7uLXRPWCh0-1" target="rbmnByKA2b7uLXRPWCh0-2" edge="1">
          <mxGeometry relative="1" as="geometry" />
        </mxCell>
        <mxCell id="rbmnByKA2b7uLXRPWCh0-1" value="线程进入条件队列&lt;br&gt;" style="whiteSpace=wrap;html=1;aspect=fixed;" parent="1" vertex="1">
          <mxGeometry x="374" y="90" width="80" height="80" as="geometry" />
        </mxCell>
        <mxCell id="D6aoqaLI96Jl8M04SHLO-4" style="edgeStyle=orthogonalEdgeStyle;rounded=0;orthogonalLoop=1;jettySize=auto;html=1;exitX=0.5;exitY=1;exitDx=0;exitDy=0;entryX=0.5;entryY=0;entryDx=0;entryDy=0;" parent="1" source="rbmnByKA2b7uLXRPWCh0-2" target="D6aoqaLI96Jl8M04SHLO-2" edge="1">
          <mxGeometry relative="1" as="geometry" />
        </mxCell>
        <mxCell id="rbmnByKA2b7uLXRPWCh0-2" value="&lt;div data-docx-has-block-data=&quot;false&quot; data-page-id=&quot;JWIHdLKR7os5VGxqLkpcncQonbc&quot;&gt;&lt;div class=&quot;old-record-id-doxcnqOImzUzMqzDm0bQGp4zcqm&quot;&gt;&lt;code&gt;fullyRelease&lt;/code&gt;&lt;/div&gt;&lt;/div&gt;" style="whiteSpace=wrap;html=1;aspect=fixed;" parent="1" vertex="1">
          <mxGeometry x="374" y="220" width="80" height="80" as="geometry" />
        </mxCell>
        <mxCell id="D6aoqaLI96Jl8M04SHLO-2" value="等待唤醒队列" style="whiteSpace=wrap;html=1;aspect=fixed;" parent="1" vertex="1">
          <mxGeometry x="374" y="360" width="80" height="80" as="geometry" />
        </mxCell>
      </root>
    </mxGraphModel>
  </diagram>
</mxfile>
